<svg width="164" height="36" viewBox="0 0 164 36" fill="none" xmlns="http://www.w3.org/2000/svg">
<path d="M158.4 21.9004H160.6V22.4004H159.7V24.7004H159.2V22.4004H158.3L158.4 21.9004Z" fill="white"/>
<path d="M161 21.9004H161.6L162.5 23.7004L163.4 21.9004H164V24.7004H163.5V22.7004L162.6 24.4004H162.3L161.4 22.7004V24.7004H161V21.9004Z" fill="white"/>
<path d="M155.4 22.1001C155.4 23.1001 155.4 23.9001 155.4 24.9001C151.3 24.9001 147.2 24.9001 143.2 24.9001C140.2 24.9001 140.2 24.9001 140.2 27.8001C140.2 32.1001 140.2 32.1001 144.4 32.1001C146.6 32.1001 148.8 32.0001 150.9 32.1001C152.5 32.2001 153 31.6001 152.8 30.1001C152.7 29.2001 152.8 28.2001 152.8 27.1001C153.8 27.1001 154.7 27.1001 155.9 27.1001C155.9 28.8001 156 30.4001 155.9 32.1001C155.8 33.8001 154.7 34.8001 153.1 34.9001C148.7 35.0001 144.4 35.0001 140 34.9001C138 34.9001 137 33.6001 137 31.6001C137 29.6001 137 27.5001 137 25.5001C137 23.3001 138 22.2001 140.1 22.1001C145.2 22.0001 150.2 22.1001 155.4 22.1001Z" fill="white"/>
<path d="M0.400096 0.900391H3.5001V10.5004C3.5001 10.7004 3.7001 10.9004 3.9001 10.9004H16.0001C16.2001 10.9004 16.4001 10.7004 16.4001 10.5004V0.900391H19.6001C19.6001 4.40039 19.7001 7.80039 19.6001 11.2004C19.6001 12.8004 18.5001 13.8004 17.0001 13.8004C12.2001 13.9004 7.9001 13.9004 3.0001 13.8004C1.4001 13.8004 0.400096 12.7004 0.400096 11.0004C0.300096 7.70038 0.400096 4.30039 0.400096 0.900391Z" fill="white"/>
<path d="M70.2001 22.1003H73.3001V31.5003C73.3001 31.7003 73.5001 31.9003 73.7001 31.9003H87.7001V34.8004C87.7001 34.8004 73.9001 34.8004 73.8001 34.8004C71.0001 34.8004 70.1001 33.7003 70.1001 31.2003C70.2001 28.5003 70.2001 25.1003 70.2001 22.1003Z" fill="white"/>
<path d="M110.5 22.2004C111.5 22.2004 112.3 22.2004 113.4 22.2004C113.4 26.4004 113.4 30.6004 113.4 34.9004C112.5 34.9004 111.6 34.9004 110.5 34.9004C110.5 30.6004 110.5 26.5004 110.5 22.2004Z" fill="white"/>
<path d="M63.5001 7.10039C63.5001 7.10039 64.0001 6.30039 64.0001 5.90039C64.6001 3.50039 63.7001 1.00039 61.3001 0.900394C55.9001 0.700394 50.5001 0.800388 44.9001 0.800388C44.9001 5.10039 44.9001 9.3004 44.9001 13.7004C50.0001 13.7004 55.0001 13.7004 60.0001 13.7004C63.9001 13.7004 64.5001 10.8004 63.9001 8.10039C63.9001 7.80039 63.5001 7.10039 63.5001 7.10039ZM60.2001 10.8004L48.3001 10.9004V8.50038C48.3001 8.50038 58.0001 8.50038 60.2001 8.50038C60.4001 8.50038 60.6001 8.70039 60.6001 8.90039V10.4004C60.6001 10.6004 60.4001 10.8004 60.2001 10.8004ZM60.2001 6.10039L48.3001 6.2004V3.80039C48.3001 3.80039 58.0001 3.80039 60.2001 3.80039C60.4001 3.80039 60.6001 4.0004 60.6001 4.2004V5.7004C60.6001 5.9004 60.4001 6.10039 60.2001 6.10039Z" fill="white"/>
<path d="M80.9001 3.30038C79.9001 1.30038 78.4001 0.900391 76.4001 0.900391C74.3001 0.900391 72.9001 1.30038 71.9001 3.30038C71.9001 3.30038 68.1001 10.1004 65.9001 13.8004H69.8001L75.2001 4.00038C75.3001 3.90038 75.4001 3.80038 75.6001 3.80038H77.4001C77.5001 3.80038 77.7001 3.90038 77.8001 4.00038L83.2001 13.8004C83.2001 13.8004 86.1001 13.8004 87.1001 13.8004C84.7001 10.1004 80.8001 3.30038 80.9001 3.30038Z" fill="white"/>
<path d="M107.5 0.900787H104.2C104.2 4.10079 104.2 7.30079 104.2 10.9008C104.2 10.9008 103.7 11.0008 103 10.4008C101.3 8.80079 97.5002 4.20079 97.0002 3.70079C97.0002 3.70079 97.0002 3.60078 96.9002 3.60078C96.6002 3.20078 96.3002 2.90078 96.2002 2.80078C95.0002 1.60078 94.3002 1.00078 92.1002 0.800781H89.2002C89.2002 4.70078 89.2002 9.80079 89.2002 13.7008H92.5002C92.5002 10.5008 92.5002 7.30079 92.5002 3.70079C92.5002 3.70079 93.0002 3.60079 93.7002 4.20079C95.4002 5.80079 99.2002 10.4008 99.7002 10.9008C99.7002 10.9008 99.7002 11.0008 99.8002 11.0008C100.1 11.4008 100.4 11.7008 100.5 11.8008C101.7 13.0008 102.4 13.6008 104.6 13.8008H107.5C107.5 9.90078 107.5 4.80079 107.5 0.900787Z" fill="white"/>
<path d="M19.5001 24.6004C19.5001 23.1004 18.4001 22.2004 16.7001 22.2004C14.9001 22.2004 13.0001 22.2004 11.2001 22.2004C7.50009 22.2004 3.8001 22.2004 0.100098 22.2004C0.100098 26.5004 0.100098 30.6004 0.100098 34.9004C3.7001 34.9004 7.10009 34.9004 10.5001 34.9004C12.6001 34.9004 14.7001 34.9004 16.7001 34.9004C18.3001 34.9004 19.4001 33.9004 19.5001 32.5004C19.5001 31.9004 19.5001 25.2004 19.5001 24.6004ZM16.4001 26.3004V30.8004V31.7004C16.4001 31.9004 16.2001 32.1004 16.0001 32.1004H3.6001C3.4001 32.1004 3.20009 31.9004 3.20009 31.7004V25.5004C3.20009 25.3004 3.4001 25.1004 3.6001 25.1004H16.2001C16.4001 25.1004 16.4001 25.3004 16.4001 25.5004V26.3004Z" fill="white"/>
<path d="M134.4 22.1H131.1C131.1 25.3 131.1 28.5 131.1 32.1C131.1 32.1 130.6 32.2 129.9 31.6C128.2 30 124.4 25.4 123.9 24.9C123.9 24.9 123.9 24.9 123.8 24.8C123.5 24.4 123.2 24.1 123.1 24C121.9 22.8 121.2 22.2 119 22H116.1C116.1 25.9 116.1 31 116.1 34.9H119.4C119.4 31.7 119.4 28.5 119.4 24.9C119.4 24.9 119.9 24.8 120.6 25.4C122.3 27 126.1 31.6 126.6 32.1C126.6 32.1 126.6 32.1 126.7 32.2C127 32.6 127.3 32.9 127.4 33C128.6 34.2 129.3 34.8 131.5 35H134.4C134.4 31.1 134.4 26 134.4 22.1Z" fill="white"/>
<path d="M44.0001 22.1003C43.5001 24.8003 42.7001 28.3003 42.1001 31.0003C42.0001 31.6003 41.8001 32.0003 41.3001 32.0003C40.7001 32.0003 40.7001 31.6003 40.4001 31.0003C40.4001 31.0003 38.4001 25.7003 37.4001 23.4003C37.0001 22.5003 36.4001 22.1003 35.5001 22.1003C35.1001 22.1003 34.7001 22.1003 34.4001 22.1003H34.3001H34.2001C33.9001 22.1003 33.5001 22.1003 33.1001 22.1003C32.2001 22.1003 31.6001 22.5003 31.2001 23.4003C30.2001 25.7003 28.2001 31.0003 28.2001 31.0003C28.0001 31.6003 27.9001 32.0003 27.3001 32.0003C26.8001 32.0003 26.6001 31.6003 26.5001 31.0003C25.9001 28.2003 25.2001 24.8003 24.6001 22.1003C23.4001 22.1003 22.4001 22.1003 21.2001 22.1003C22.0001 25.6003 22.8001 28.9003 23.5001 32.1003C23.8001 33.5003 24.2001 34.9004 26.0001 34.8004C26.8001 34.8004 27.9001 34.8004 28.7001 34.8004C29.7001 34.8004 30.2001 34.1003 30.7001 32.7003L33.6001 25.0003C33.9001 24.2003 34.0001 24.1003 34.2001 24.1003C34.4001 24.1003 34.6001 24.2003 34.8001 25.0003L37.7001 32.7003C38.2001 34.1003 38.7001 34.8004 39.7001 34.8004C40.5001 34.8004 41.5001 34.8004 42.4001 34.8004C44.2001 34.8004 44.6001 33.5003 44.9001 32.1003C45.6001 28.9003 46.4001 25.5003 47.2001 22.1003C46.2001 22.1003 45.2001 22.1003 44.0001 22.1003Z" fill="white"/>
<path d="M66.3998 27.4008H52.0998C51.7998 27.4008 51.5998 27.2008 51.5998 27.0008V25.5008C51.5998 25.3008 51.7998 25.1008 52.0998 25.1008C54.4998 25.1008 63.7998 25.1008 66.3998 25.1008H67.0998C67.0998 24.1008 67.0998 23.2008 67.0998 22.2008C61.5998 22.2008 56.1998 22.1008 50.6998 22.3008C48.3998 22.4008 47.7998 24.5008 47.7998 27.1008C47.7998 27.5008 47.7998 29.2008 47.7998 29.6008C47.7998 32.3008 47.9998 35.1008 51.8998 35.1008C56.8998 35.1008 61.8998 35.1008 66.9998 35.1008C66.9998 34.1008 66.9998 33.1008 66.9998 32.2008H51.9998C51.6998 32.2008 51.4998 32.0008 51.4998 31.8008V30.1008C51.4998 29.9008 51.6998 29.7008 51.9998 29.7008C54.6998 29.7008 66.9998 29.7008 66.9998 29.7008C66.9998 28.9008 66.9998 28.1008 66.9998 27.4008H66.3998Z" fill="white"/>
<path d="M90.0001 22.1003H93.1001V31.5003C93.1001 31.7003 93.3001 31.9003 93.5001 31.9003H107.5V34.8004C107.5 34.8004 93.7001 34.8004 93.6001 34.8004C90.8001 34.8004 89.9001 33.7003 89.9001 31.2003C90.0001 28.5003 90.0001 25.1003 90.0001 22.1003Z" fill="white"/>
<path d="M36.6004 8.8H38.1004C40.8004 8.7 41.1004 7.30001 41.1004 4.90001C41.1004 2.70001 40.5004 1.1 38.0004 1H24.9004H21.9004V13.9H24.9004V8.90001H32.2004L37.6004 13.9H41.8004C41.8004 13.8 36.6004 8.8 36.6004 8.8ZM25.0004 6.10001V3.70001C25.8004 3.70001 34.9004 3.70001 37.0004 3.70001C37.2004 3.70001 37.4004 3.90001 37.4004 4.10001V5.60001C37.4004 5.80001 37.2004 6 37.0004 6L25.0004 6.10001Z" fill="white"/>
</svg>
