<svg width="63" height="63" viewBox="0 0 63 63" fill="none" xmlns="http://www.w3.org/2000/svg">
<path d="M52.9 62.1H9.2C4.1 62.1 0 58 0 52.9V9.20001C0 4.10001 4.1 0 9.2 0H52.9C58 0 62.1 4.10001 62.1 9.20001V52.9C62.1 58 57.9 62.1 52.9 62.1Z" fill="white"/>
<path d="M30.6 20.1001C30.6 20.1001 36.7 16.4001 40.4 14.3001C44.1 12.2001 46.2 11.5001 48.3 11.3001C50.4 11.2001 52.8 12.3001 52.8 12.3001L46.1 8.10007C46.1 8.10007 45.2 7.50006 42.7 7.80006C40.2 8.10006 38.9 8.80007 37.3 9.60007C35.7 10.5001 25 16.8001 25 16.8001L30.6 20.1001Z" fill="#231815"/>
<path d="M46.5997 17.3005C46.5997 17.3005 49.6997 21.6005 47.2997 29.2005C44.8997 36.8005 39.2997 41.1005 38.8997 41.4005C38.5997 41.7005 35.0997 43.7005 35.0997 43.7005L35.1997 49.7005C35.1997 49.7005 46.3997 45.8005 51.0997 35.0005C55.2997 25.5005 52.5997 20.4005 50.4997 18.2005C49.2997 16.9005 46.5997 17.3005 46.5997 17.3005Z" fill="#231815"/>
<path d="M30.6001 49.5997L25.0001 46.2997V16.8997L30.6001 20.0997V49.5997Z" fill="#231815"/>
<path d="M13.5 41L7.89999 37.6001V8.30005L13.4 11.4001L13.5 41Z" fill="#231815"/>
<path d="M7.9 37.6001C7.9 37.6001 6.50001 50.0001 16.6 54.5001C22.4 57.1001 26.7 55.6001 28.7 53.6001C30.3 52.0001 30.5 49.6001 30.5 49.6001L24.9 46.2001C24.9 46.2001 24.9 47.4001 24 48.3001C23 49.4001 21.4 50.5001 17.8 48.7001C13.2 46.3001 13.4 41.0001 13.4 41.0001L7.9 37.6001Z" fill="#231815"/>
<path d="M13.4 11.4001L17.9 9.10005L12.8 6.30005L7.89999 8.30005L13.4 11.4001Z" fill="#231815"/>
</svg>
