<svg width="149" height="32" viewBox="0 0 149 32" fill="none" xmlns="http://www.w3.org/2000/svg">
<path d="M143.916 19.4908H145.913V19.9448H145.096V22.0331H144.642V19.9448H143.825L143.916 19.4908Z" fill="#231815"/>
<path d="M146.276 19.4908H146.821L147.638 21.1251L148.455 19.4908H149V22.0331H148.546V20.2172L147.729 21.7607H147.457L146.639 20.2172V22.0331H146.276V19.4908Z" fill="#231815"/>
<path d="M141.192 19.6723C141.192 20.5803 141.192 21.3066 141.192 22.2146C137.469 22.2146 133.747 22.2146 130.115 22.2146C127.391 22.2146 127.391 22.2146 127.391 24.8476C127.391 28.7518 127.391 28.7518 131.204 28.7518C133.202 28.7518 135.199 28.661 137.106 28.7518C138.559 28.8426 139.013 28.2978 138.831 26.9359C138.74 26.1188 138.831 25.2108 138.831 24.2121C139.739 24.2121 140.556 24.2121 141.646 24.2121C141.646 25.7556 141.737 27.2083 141.646 28.7518C141.555 30.2953 140.556 31.2033 139.103 31.2941C135.108 31.3849 131.204 31.3849 127.209 31.2941C125.393 31.2941 124.485 30.1137 124.485 28.2978C124.485 26.4819 124.485 24.5752 124.485 22.7593C124.485 20.7618 125.393 19.7631 127.3 19.6723C131.931 19.5815 136.47 19.6723 141.192 19.6723Z" fill="#231815"/>
<path d="M0.459665 0.423828H3.27431V9.14014C3.27431 9.32173 3.4559 9.50333 3.63749 9.50333H14.6237C14.8053 9.50333 14.9869 9.32173 14.9869 9.14014V0.423828H17.8923C17.8923 3.60165 17.9831 6.68868 17.8923 9.77571C17.8923 11.2284 16.8936 12.1364 15.5316 12.1364C11.1735 12.2272 7.26929 12.2272 2.82034 12.1364C1.36762 12.1364 0.459665 11.1376 0.459665 9.59411C0.36887 6.59788 0.459665 3.51086 0.459665 0.423828Z" fill="#231815"/>
<path d="M63.8345 19.6723H66.6491V28.207C66.6491 28.3886 66.8307 28.5702 67.0123 28.5702H79.7236V31.2033C79.7236 31.2033 67.1939 31.2033 67.1031 31.2033C64.5609 31.2033 63.7437 30.2045 63.7437 27.9347C63.8345 25.4832 63.8345 22.3962 63.8345 19.6723Z" fill="#231815"/>
<path d="M100.425 19.7632C101.333 19.7632 102.059 19.7632 103.058 19.7632C103.058 23.5766 103.058 27.3899 103.058 31.2941C102.241 31.2941 101.424 31.2941 100.425 31.2941C100.425 27.3899 100.425 23.6674 100.425 19.7632Z" fill="#231815"/>
<path d="M57.7513 6.05308C57.7513 6.05308 58.2053 5.32673 58.2053 4.96355C58.75 2.78447 57.9329 0.514594 55.7538 0.423799C50.8509 0.242209 45.948 0.332999 40.8634 0.332999C40.8634 4.23718 40.8634 8.05058 40.8634 12.0456C45.494 12.0456 50.0337 12.0456 54.5735 12.0456C58.1145 12.0456 58.6592 9.4125 58.1145 6.96103C58.1145 6.68865 57.7513 6.05308 57.7513 6.05308ZM54.7551 9.4125L43.9505 9.5033V7.32421C43.9505 7.32421 52.7576 7.32421 54.7551 7.32421C54.9367 7.32421 55.1183 7.50581 55.1183 7.6874V9.04932C55.1183 9.23091 54.9367 9.4125 54.7551 9.4125ZM54.7551 5.14513L43.9505 5.23594V3.05685C43.9505 3.05685 52.7576 3.05685 54.7551 3.05685C54.9367 3.05685 55.1183 3.23845 55.1183 3.42004V4.78196C55.1183 4.96355 54.9367 5.14513 54.7551 5.14513Z" fill="#231815"/>
<path d="M73.5496 2.6029C72.6417 0.787002 71.2798 0.423828 69.4639 0.423828C67.5572 0.423828 66.286 0.787002 65.3781 2.6029C65.3781 2.6029 61.9279 8.77696 59.9304 12.1364H63.4714L68.3743 3.23846C68.4651 3.14767 68.5559 3.05688 68.7375 3.05688H70.3718C70.4626 3.05688 70.6442 3.14767 70.735 3.23846L75.6379 12.1364C75.6379 12.1364 78.271 12.1364 79.1789 12.1364C76.9999 8.77696 73.4588 2.6029 73.5496 2.6029Z" fill="#231815"/>
<path d="M97.7011 0.423808H94.7049C94.7049 3.32925 94.7049 6.23469 94.7049 9.50331C94.7049 9.50331 94.2509 9.5941 93.6154 9.04933C92.0718 7.59661 88.6216 3.42005 88.1677 2.96607C88.1677 2.96607 88.1677 2.87527 88.0769 2.87527C87.8045 2.51209 87.5321 2.2397 87.4413 2.14891C86.3518 1.05937 85.7162 0.514598 83.7187 0.333008H81.0857C81.0857 3.87401 81.0857 8.50456 81.0857 12.0456H84.0819C84.0819 9.14013 84.0819 6.23469 84.0819 2.96607C84.0819 2.96607 84.5359 2.87528 85.1714 3.42005C86.715 4.87277 90.1652 9.04933 90.6191 9.50331C90.6191 9.50331 90.6191 9.59409 90.7099 9.59409C90.9823 9.95727 91.2547 10.2297 91.3455 10.3205C92.435 11.41 93.0706 11.9548 95.0681 12.1364H97.7011C97.7011 8.59535 97.7011 3.96481 97.7011 0.423808Z" fill="#231815"/>
<path d="M17.8014 21.9423C17.8014 20.5803 16.8027 19.7632 15.2592 19.7632C13.6249 19.7632 11.8998 19.7632 10.2655 19.7632C6.90604 19.7632 3.54664 19.7632 0.187225 19.7632C0.187225 23.6674 0.187225 27.3899 0.187225 31.2941C3.45584 31.2941 6.54287 31.2941 9.6299 31.2941C11.5366 31.2941 13.4433 31.2941 15.2592 31.2941C16.7119 31.2941 17.7106 30.3862 17.8014 29.1151C17.8014 28.5703 17.8014 22.487 17.8014 21.9423ZM14.9868 23.4858V27.5716V28.3887C14.9868 28.5703 14.8052 28.7519 14.6236 28.7519H3.36505C3.18346 28.7519 3.00186 28.5703 3.00186 28.3887V22.7594C3.00186 22.5778 3.18346 22.3962 3.36505 22.3962H14.8052C14.9868 22.3962 14.9868 22.5778 14.9868 22.7594V23.4858Z" fill="#231815"/>
<path d="M122.125 19.6723H119.129C119.129 22.5778 119.129 25.4832 119.129 28.7518C119.129 28.7518 118.675 28.8426 118.039 28.2979C116.496 26.8451 113.045 22.6686 112.591 22.2146C112.591 22.2146 112.591 22.2146 112.501 22.1238C112.228 21.7606 111.956 21.4882 111.865 21.3974C110.776 20.3079 110.14 19.7631 108.142 19.5815H105.509C105.509 23.1225 105.509 27.7531 105.509 31.2941H108.506C108.506 28.3887 108.506 25.4832 108.506 22.2146C108.506 22.2146 108.96 22.1238 109.595 22.6686C111.139 24.1213 114.589 28.2979 115.043 28.7518C115.043 28.7518 115.043 28.7518 115.134 28.8426C115.406 29.2058 115.678 29.4782 115.769 29.569C116.859 30.6585 117.494 31.2033 119.492 31.3849H122.125C122.125 27.8439 122.125 23.2133 122.125 19.6723Z" fill="#231815"/>
<path d="M40.0463 19.6723C39.5923 22.1238 38.866 25.3016 38.3212 27.753C38.2304 28.2978 38.0488 28.661 37.5949 28.661C37.0501 28.661 37.0501 28.2978 36.7777 27.753C36.7777 27.753 34.9618 22.9409 34.0538 20.8526C33.6907 20.0355 33.1459 19.6723 32.3287 19.6723C31.9656 19.6723 31.6024 19.6723 31.33 19.6723H31.2392H31.1484C30.876 19.6723 30.5129 19.6723 30.1497 19.6723C29.3325 19.6723 28.7877 20.0355 28.4246 20.8526C27.5166 22.9409 25.7007 27.753 25.7007 27.753C25.5191 28.2978 25.4283 28.661 24.8836 28.661C24.4296 28.661 24.248 28.2978 24.1572 27.753C23.6124 25.2108 22.9769 22.1238 22.4321 19.6723C21.3426 19.6723 20.4346 19.6723 19.3451 19.6723C20.0714 22.8501 20.7978 25.8464 21.4333 28.7518C21.7057 30.0229 22.0689 31.2941 23.7032 31.2033C24.4296 31.2033 25.4283 31.2033 26.1547 31.2033C27.0626 31.2033 27.5166 30.5677 27.9706 29.2966L30.6036 22.3054C30.876 21.579 30.9668 21.4882 31.1484 21.4882C31.33 21.4882 31.5116 21.579 31.6932 22.3054L34.3262 29.2966C34.7802 30.5677 35.2342 31.2033 36.1421 31.2033C36.8685 31.2033 37.7764 31.2033 38.5936 31.2033C40.2279 31.2033 40.5911 30.0229 40.8635 28.7518C41.499 25.8464 42.2254 22.7593 42.9518 19.6723C42.0438 19.6723 41.1359 19.6723 40.0463 19.6723Z" fill="#231815"/>
<path d="M60.3843 24.4845H47.4006C47.1282 24.4845 46.9466 24.3029 46.9466 24.1213V22.7594C46.9466 22.5778 47.1282 22.3962 47.4006 22.3962C49.5797 22.3962 58.0236 22.3962 60.3843 22.3962H61.0198C61.0198 21.4883 61.0198 20.6711 61.0198 19.7632C56.0261 19.7632 51.1232 19.6724 46.1294 19.854C44.0412 19.9448 43.4964 21.8515 43.4964 24.2121C43.4964 24.5753 43.4964 26.1188 43.4964 26.482C43.4964 28.9335 43.678 31.4757 47.219 31.4757C51.7587 31.4757 56.2985 31.4757 60.929 31.4757C60.929 30.5678 60.929 29.6598 60.929 28.8427H47.3098C47.0374 28.8427 46.8558 28.6611 46.8558 28.4795V26.936C46.8558 26.7544 47.0374 26.5728 47.3098 26.5728C49.7613 26.5728 60.929 26.5728 60.929 26.5728C60.929 25.8464 60.929 25.1201 60.929 24.4845H60.3843Z" fill="#231815"/>
<path d="M81.812 19.6723H84.6266V28.207C84.6266 28.3886 84.8082 28.5702 84.9898 28.5702H97.7011V31.2033C97.7011 31.2033 85.1714 31.2033 85.0806 31.2033C82.5384 31.2033 81.7212 30.2045 81.7212 27.9347C81.812 25.4832 81.812 22.3962 81.812 19.6723Z" fill="#231815"/>
<path d="M33.3275 7.5966H34.6894C37.1409 7.5058 37.4132 6.23468 37.4132 4.0556C37.4132 2.05811 36.8685 0.605382 34.5986 0.514587H22.7044H19.9806V12.2271H22.7044V7.6874H29.3325L34.2354 12.2271H38.0488C38.0488 12.1364 33.3275 7.5966 33.3275 7.5966ZM22.7952 5.14514V2.96606C23.5216 2.96606 31.7839 2.96606 33.6906 2.96606C33.8722 2.96606 34.0538 3.14765 34.0538 3.32924V4.69116C34.0538 4.87275 33.8722 5.05434 33.6906 5.05434L22.7952 5.14514Z" fill="#231815"/>
</svg>
