<svg xmlns="http://www.w3.org/2000/svg">
  <symbol id="main-logo" viewBox="0 0 57 57" fill="none" xmlns="http://www.w3.org/2000/svg">
    <path d="M48.0305 56.3837H8.35314C3.72259 56.3837 0 52.6611 0 48.0305V8.35315C0 3.72261 3.72259 0 8.35314 0H48.0305C52.6611 0 56.3837 3.72261 56.3837 8.35315V48.0305C56.3837 52.6611 52.5703 56.3837 48.0305 56.3837Z" fill="#231815"/>
    <path d="M27.7833 18.2499C27.7833 18.2499 33.3218 14.8905 36.6812 12.9838C40.0406 11.0771 41.9473 10.4415 43.854 10.26C45.7607 10.1692 47.9398 11.1679 47.9398 11.1679L41.8565 7.35451C41.8565 7.35451 41.0394 6.80974 38.7695 7.08213C36.4996 7.35451 35.3193 7.99008 33.8666 8.71644C32.4139 9.53359 22.6988 15.2537 22.6988 15.2537L27.7833 18.2499Z" fill="white"/>
    <path d="M42.3104 15.7076C42.3104 15.7076 45.125 19.6118 42.9459 26.5122C40.7669 33.4126 35.6823 37.3168 35.3192 37.5892C35.0468 37.8616 31.869 39.6775 31.869 39.6775L31.9597 45.1252C31.9597 45.1252 42.1288 41.5842 46.3962 31.7783C50.2095 23.1528 47.7581 18.5223 45.8514 16.5248C44.7618 15.3444 42.3104 15.7076 42.3104 15.7076Z" fill="white"/>
    <path d="M27.7833 45.0344L22.6988 42.0381V15.3444L27.7833 18.2499V45.0344Z" fill="white"/>
    <path d="M12.2573 37.226L7.17279 34.139V7.53607L12.1665 10.3507L12.2573 37.226Z" fill="white"/>
    <path d="M7.1728 34.139C7.1728 34.139 5.90167 45.3976 15.072 49.4834C20.3381 51.8441 24.2423 50.4821 26.0582 48.6662C27.5109 47.2135 27.6925 45.0344 27.6925 45.0344L22.6079 41.9474C22.6079 41.9474 22.6079 43.037 21.7908 43.8541C20.8828 44.8529 19.4301 45.8516 16.1615 44.2173C11.9849 42.0382 12.1665 37.2261 12.1665 37.2261L7.1728 34.139Z" fill="white"/>
    <path d="M12.1666 10.3507L16.2524 8.26242L11.6218 5.72015L7.17288 7.53605L12.1666 10.3507Z" fill="white"/>
  </symbol>

  <symbol id='main-logo-name' viewBox="0 0 149 32" fill="none" xmlns="http://www.w3.org/2000/svg">
    <path d="M143.916 19.4908H145.913V19.9448H145.096V22.0331H144.642V19.9448H143.825L143.916 19.4908Z" fill="#231815"/>
    <path d="M146.276 19.4908H146.821L147.638 21.1251L148.455 19.4908H149V22.0331H148.546V20.2172L147.729 21.7607H147.457L146.639 20.2172V22.0331H146.276V19.4908Z" fill="#231815"/>
    <path d="M141.192 19.6723C141.192 20.5803 141.192 21.3066 141.192 22.2146C137.469 22.2146 133.747 22.2146 130.115 22.2146C127.391 22.2146 127.391 22.2146 127.391 24.8476C127.391 28.7518 127.391 28.7518 131.204 28.7518C133.202 28.7518 135.199 28.661 137.106 28.7518C138.559 28.8426 139.013 28.2978 138.831 26.9359C138.74 26.1188 138.831 25.2108 138.831 24.2121C139.739 24.2121 140.556 24.2121 141.646 24.2121C141.646 25.7556 141.737 27.2083 141.646 28.7518C141.555 30.2953 140.556 31.2033 139.103 31.2941C135.108 31.3849 131.204 31.3849 127.209 31.2941C125.393 31.2941 124.485 30.1137 124.485 28.2978C124.485 26.4819 124.485 24.5752 124.485 22.7593C124.485 20.7618 125.393 19.7631 127.3 19.6723C131.931 19.5815 136.47 19.6723 141.192 19.6723Z" fill="#231815"/>
    <path d="M0.459665 0.423828H3.27431V9.14014C3.27431 9.32173 3.4559 9.50333 3.63749 9.50333H14.6237C14.8053 9.50333 14.9869 9.32173 14.9869 9.14014V0.423828H17.8923C17.8923 3.60165 17.9831 6.68868 17.8923 9.77571C17.8923 11.2284 16.8936 12.1364 15.5316 12.1364C11.1735 12.2272 7.26929 12.2272 2.82034 12.1364C1.36762 12.1364 0.459665 11.1376 0.459665 9.59411C0.36887 6.59788 0.459665 3.51086 0.459665 0.423828Z" fill="#231815"/>
    <path d="M63.8345 19.6723H66.6491V28.207C66.6491 28.3886 66.8307 28.5702 67.0123 28.5702H79.7236V31.2033C79.7236 31.2033 67.1939 31.2033 67.1031 31.2033C64.5609 31.2033 63.7437 30.2045 63.7437 27.9347C63.8345 25.4832 63.8345 22.3962 63.8345 19.6723Z" fill="#231815"/>
    <path d="M100.425 19.7632C101.333 19.7632 102.059 19.7632 103.058 19.7632C103.058 23.5766 103.058 27.3899 103.058 31.2941C102.241 31.2941 101.424 31.2941 100.425 31.2941C100.425 27.3899 100.425 23.6674 100.425 19.7632Z" fill="#231815"/>
    <path d="M57.7513 6.05308C57.7513 6.05308 58.2053 5.32673 58.2053 4.96355C58.75 2.78447 57.9329 0.514594 55.7538 0.423799C50.8509 0.242209 45.948 0.332999 40.8634 0.332999C40.8634 4.23718 40.8634 8.05058 40.8634 12.0456C45.494 12.0456 50.0337 12.0456 54.5735 12.0456C58.1145 12.0456 58.6592 9.4125 58.1145 6.96103C58.1145 6.68865 57.7513 6.05308 57.7513 6.05308ZM54.7551 9.4125L43.9505 9.5033V7.32421C43.9505 7.32421 52.7576 7.32421 54.7551 7.32421C54.9367 7.32421 55.1183 7.50581 55.1183 7.6874V9.04932C55.1183 9.23091 54.9367 9.4125 54.7551 9.4125ZM54.7551 5.14513L43.9505 5.23594V3.05685C43.9505 3.05685 52.7576 3.05685 54.7551 3.05685C54.9367 3.05685 55.1183 3.23845 55.1183 3.42004V4.78196C55.1183 4.96355 54.9367 5.14513 54.7551 5.14513Z" fill="#231815"/>
    <path d="M73.5496 2.6029C72.6417 0.787002 71.2798 0.423828 69.4639 0.423828C67.5572 0.423828 66.286 0.787002 65.3781 2.6029C65.3781 2.6029 61.9279 8.77696 59.9304 12.1364H63.4714L68.3743 3.23846C68.4651 3.14767 68.5559 3.05688 68.7375 3.05688H70.3718C70.4626 3.05688 70.6442 3.14767 70.735 3.23846L75.6379 12.1364C75.6379 12.1364 78.271 12.1364 79.1789 12.1364C76.9999 8.77696 73.4588 2.6029 73.5496 2.6029Z" fill="#231815"/>
    <path d="M97.7011 0.423808H94.7049C94.7049 3.32925 94.7049 6.23469 94.7049 9.50331C94.7049 9.50331 94.2509 9.5941 93.6154 9.04933C92.0718 7.59661 88.6216 3.42005 88.1677 2.96607C88.1677 2.96607 88.1677 2.87527 88.0769 2.87527C87.8045 2.51209 87.5321 2.2397 87.4413 2.14891C86.3518 1.05937 85.7162 0.514598 83.7187 0.333008H81.0857C81.0857 3.87401 81.0857 8.50456 81.0857 12.0456H84.0819C84.0819 9.14013 84.0819 6.23469 84.0819 2.96607C84.0819 2.96607 84.5359 2.87528 85.1714 3.42005C86.715 4.87277 90.1652 9.04933 90.6191 9.50331C90.6191 9.50331 90.6191 9.59409 90.7099 9.59409C90.9823 9.95727 91.2547 10.2297 91.3455 10.3205C92.435 11.41 93.0706 11.9548 95.0681 12.1364H97.7011C97.7011 8.59535 97.7011 3.96481 97.7011 0.423808Z" fill="#231815"/>
    <path d="M17.8014 21.9423C17.8014 20.5803 16.8027 19.7632 15.2592 19.7632C13.6249 19.7632 11.8998 19.7632 10.2655 19.7632C6.90604 19.7632 3.54664 19.7632 0.187225 19.7632C0.187225 23.6674 0.187225 27.3899 0.187225 31.2941C3.45584 31.2941 6.54287 31.2941 9.6299 31.2941C11.5366 31.2941 13.4433 31.2941 15.2592 31.2941C16.7119 31.2941 17.7106 30.3862 17.8014 29.1151C17.8014 28.5703 17.8014 22.487 17.8014 21.9423ZM14.9868 23.4858V27.5716V28.3887C14.9868 28.5703 14.8052 28.7519 14.6236 28.7519H3.36505C3.18346 28.7519 3.00186 28.5703 3.00186 28.3887V22.7594C3.00186 22.5778 3.18346 22.3962 3.36505 22.3962H14.8052C14.9868 22.3962 14.9868 22.5778 14.9868 22.7594V23.4858Z" fill="#231815"/>
    <path d="M122.125 19.6723H119.129C119.129 22.5778 119.129 25.4832 119.129 28.7518C119.129 28.7518 118.675 28.8426 118.039 28.2979C116.496 26.8451 113.045 22.6686 112.591 22.2146C112.591 22.2146 112.591 22.2146 112.501 22.1238C112.228 21.7606 111.956 21.4882 111.865 21.3974C110.776 20.3079 110.14 19.7631 108.142 19.5815H105.509C105.509 23.1225 105.509 27.7531 105.509 31.2941H108.506C108.506 28.3887 108.506 25.4832 108.506 22.2146C108.506 22.2146 108.96 22.1238 109.595 22.6686C111.139 24.1213 114.589 28.2979 115.043 28.7518C115.043 28.7518 115.043 28.7518 115.134 28.8426C115.406 29.2058 115.678 29.4782 115.769 29.569C116.859 30.6585 117.494 31.2033 119.492 31.3849H122.125C122.125 27.8439 122.125 23.2133 122.125 19.6723Z" fill="#231815"/>
    <path d="M40.0463 19.6723C39.5923 22.1238 38.866 25.3016 38.3212 27.753C38.2304 28.2978 38.0488 28.661 37.5949 28.661C37.0501 28.661 37.0501 28.2978 36.7777 27.753C36.7777 27.753 34.9618 22.9409 34.0538 20.8526C33.6907 20.0355 33.1459 19.6723 32.3287 19.6723C31.9656 19.6723 31.6024 19.6723 31.33 19.6723H31.2392H31.1484C30.876 19.6723 30.5129 19.6723 30.1497 19.6723C29.3325 19.6723 28.7877 20.0355 28.4246 20.8526C27.5166 22.9409 25.7007 27.753 25.7007 27.753C25.5191 28.2978 25.4283 28.661 24.8836 28.661C24.4296 28.661 24.248 28.2978 24.1572 27.753C23.6124 25.2108 22.9769 22.1238 22.4321 19.6723C21.3426 19.6723 20.4346 19.6723 19.3451 19.6723C20.0714 22.8501 20.7978 25.8464 21.4333 28.7518C21.7057 30.0229 22.0689 31.2941 23.7032 31.2033C24.4296 31.2033 25.4283 31.2033 26.1547 31.2033C27.0626 31.2033 27.5166 30.5677 27.9706 29.2966L30.6036 22.3054C30.876 21.579 30.9668 21.4882 31.1484 21.4882C31.33 21.4882 31.5116 21.579 31.6932 22.3054L34.3262 29.2966C34.7802 30.5677 35.2342 31.2033 36.1421 31.2033C36.8685 31.2033 37.7764 31.2033 38.5936 31.2033C40.2279 31.2033 40.5911 30.0229 40.8635 28.7518C41.499 25.8464 42.2254 22.7593 42.9518 19.6723C42.0438 19.6723 41.1359 19.6723 40.0463 19.6723Z" fill="#231815"/>
    <path d="M60.3843 24.4845H47.4006C47.1282 24.4845 46.9466 24.3029 46.9466 24.1213V22.7594C46.9466 22.5778 47.1282 22.3962 47.4006 22.3962C49.5797 22.3962 58.0236 22.3962 60.3843 22.3962H61.0198C61.0198 21.4883 61.0198 20.6711 61.0198 19.7632C56.0261 19.7632 51.1232 19.6724 46.1294 19.854C44.0412 19.9448 43.4964 21.8515 43.4964 24.2121C43.4964 24.5753 43.4964 26.1188 43.4964 26.482C43.4964 28.9335 43.678 31.4757 47.219 31.4757C51.7587 31.4757 56.2985 31.4757 60.929 31.4757C60.929 30.5678 60.929 29.6598 60.929 28.8427H47.3098C47.0374 28.8427 46.8558 28.6611 46.8558 28.4795V26.936C46.8558 26.7544 47.0374 26.5728 47.3098 26.5728C49.7613 26.5728 60.929 26.5728 60.929 26.5728C60.929 25.8464 60.929 25.1201 60.929 24.4845H60.3843Z" fill="#231815"/>
    <path d="M81.812 19.6723H84.6266V28.207C84.6266 28.3886 84.8082 28.5702 84.9898 28.5702H97.7011V31.2033C97.7011 31.2033 85.1714 31.2033 85.0806 31.2033C82.5384 31.2033 81.7212 30.2045 81.7212 27.9347C81.812 25.4832 81.812 22.3962 81.812 19.6723Z" fill="#231815"/>
    <path d="M33.3275 7.5966H34.6894C37.1409 7.5058 37.4132 6.23468 37.4132 4.0556C37.4132 2.05811 36.8685 0.605382 34.5986 0.514587H22.7044H19.9806V12.2271H22.7044V7.6874H29.3325L34.2354 12.2271H38.0488C38.0488 12.1364 33.3275 7.5966 33.3275 7.5966ZM22.7952 5.14514V2.96606C23.5216 2.96606 31.7839 2.96606 33.6906 2.96606C33.8722 2.96606 34.0538 3.14765 34.0538 3.32924V4.69116C34.0538 4.87275 33.8722 5.05434 33.6906 5.05434L22.7952 5.14514Z" fill="#231815"/>
  </symbol>

  <symbol id="search-icon" viewBox="0 0 22 23" fill="none" xmlns="http://www.w3.org/2000/svg">
    <path d="M10.1931 20.1421C5.18518 20.1421 1.10791 16.0648 1.10791 11.0568C1.10791 6.04889 5.18518 1.97162 10.1931 1.97162C15.2011 1.97162 19.2784 6.04889 19.2784 11.0568C19.2784 16.0648 15.2011 20.1421 10.1931 20.1421ZM10.1931 3.30116C5.912 3.30116 2.43746 6.78457 2.43746 11.0568C2.43746 15.3291 5.912 18.8125 10.1931 18.8125C14.4743 18.8125 17.9488 15.3291 17.9488 11.0568C17.9488 6.78457 14.4743 3.30116 10.1931 3.30116Z" fill="currentColor"/>
    <path d="M19.5 21.0284C19.3316 21.0284 19.1632 20.9664 19.0302 20.8334L17.2575 19.0607C17.0004 18.8036 17.0004 18.3782 17.2575 18.1211C17.5145 17.8641 17.94 17.8641 18.197 18.1211L19.9698 19.8939C20.2268 20.1509 20.2268 20.5764 19.9698 20.8334C19.8368 20.9664 19.6684 21.0284 19.5 21.0284Z" fill="currentColor"/>
  </symbol>

  <symbol id="bucket-icon" viewBox="0 0 33 33" fill="none" xmlns="http://www.w3.org/2000/svg">
    <path fill-rule="evenodd" clip-rule="evenodd" d="M7.16673 12.9C7.14893 11.5932 8.19325 10.519 9.50006 10.5H23.5001C24.8069 10.519 25.8512 11.5932 25.8334 12.9V23.7C25.8697 26.314 23.7807 28.4627 21.1667 28.5H11.8334C9.21945 28.4627 7.13039 26.314 7.16673 23.7V12.9Z" stroke="currentColor" stroke-width="1.5" stroke-linecap="round" stroke-linejoin="round"/>
    <path d="M21.1667 14.1V9.3C21.203 6.68604 19.114 4.53729 16.5 4.5C13.8861 4.53729 11.797 6.68604 11.8334 9.3V14.1" stroke="currentColor" stroke-width="1.5" stroke-linecap="round" stroke-linejoin="round"/>
  </symbol>

  <symbol id='main-logo-white' viewBox="0 0 63 63" fill="none" xmlns="http://www.w3.org/2000/svg">
    <path d="M52.9 62.1H9.2C4.1 62.1 0 58 0 52.9V9.20001C0 4.10001 4.1 0 9.2 0H52.9C58 0 62.1 4.10001 62.1 9.20001V52.9C62.1 58 57.9 62.1 52.9 62.1Z" fill="white"/>
    <path d="M30.6 20.1001C30.6 20.1001 36.7 16.4001 40.4 14.3001C44.1 12.2001 46.2 11.5001 48.3 11.3001C50.4 11.2001 52.8 12.3001 52.8 12.3001L46.1 8.10007C46.1 8.10007 45.2 7.50006 42.7 7.80006C40.2 8.10006 38.9 8.80007 37.3 9.60007C35.7 10.5001 25 16.8001 25 16.8001L30.6 20.1001Z" fill="#231815"/>
    <path d="M46.5997 17.3005C46.5997 17.3005 49.6997 21.6005 47.2997 29.2005C44.8997 36.8005 39.2997 41.1005 38.8997 41.4005C38.5997 41.7005 35.0997 43.7005 35.0997 43.7005L35.1997 49.7005C35.1997 49.7005 46.3997 45.8005 51.0997 35.0005C55.2997 25.5005 52.5997 20.4005 50.4997 18.2005C49.2997 16.9005 46.5997 17.3005 46.5997 17.3005Z" fill="#231815"/>
    <path d="M30.6001 49.5997L25.0001 46.2997V16.8997L30.6001 20.0997V49.5997Z" fill="#231815"/>
    <path d="M13.5 41L7.89999 37.6001V8.30005L13.4 11.4001L13.5 41Z" fill="#231815"/>
    <path d="M7.9 37.6001C7.9 37.6001 6.50001 50.0001 16.6 54.5001C22.4 57.1001 26.7 55.6001 28.7 53.6001C30.3 52.0001 30.5 49.6001 30.5 49.6001L24.9 46.2001C24.9 46.2001 24.9 47.4001 24 48.3001C23 49.4001 21.4 50.5001 17.8 48.7001C13.2 46.3001 13.4 41.0001 13.4 41.0001L7.9 37.6001Z" fill="#231815"/>
    <path d="M13.4 11.4001L17.9 9.10005L12.8 6.30005L7.89999 8.30005L13.4 11.4001Z" fill="#231815"/>
  </symbol>

  <symbol id="main-logo-name-white" viewBox="0 0 164 36" fill="none" xmlns="http://www.w3.org/2000/svg">
    <path d="M158.4 21.9004H160.6V22.4004H159.7V24.7004H159.2V22.4004H158.3L158.4 21.9004Z" fill="white"/>
    <path d="M161 21.9004H161.6L162.5 23.7004L163.4 21.9004H164V24.7004H163.5V22.7004L162.6 24.4004H162.3L161.4 22.7004V24.7004H161V21.9004Z" fill="white"/>
    <path d="M155.4 22.1001C155.4 23.1001 155.4 23.9001 155.4 24.9001C151.3 24.9001 147.2 24.9001 143.2 24.9001C140.2 24.9001 140.2 24.9001 140.2 27.8001C140.2 32.1001 140.2 32.1001 144.4 32.1001C146.6 32.1001 148.8 32.0001 150.9 32.1001C152.5 32.2001 153 31.6001 152.8 30.1001C152.7 29.2001 152.8 28.2001 152.8 27.1001C153.8 27.1001 154.7 27.1001 155.9 27.1001C155.9 28.8001 156 30.4001 155.9 32.1001C155.8 33.8001 154.7 34.8001 153.1 34.9001C148.7 35.0001 144.4 35.0001 140 34.9001C138 34.9001 137 33.6001 137 31.6001C137 29.6001 137 27.5001 137 25.5001C137 23.3001 138 22.2001 140.1 22.1001C145.2 22.0001 150.2 22.1001 155.4 22.1001Z" fill="white"/>
    <path d="M0.400096 0.900391H3.5001V10.5004C3.5001 10.7004 3.7001 10.9004 3.9001 10.9004H16.0001C16.2001 10.9004 16.4001 10.7004 16.4001 10.5004V0.900391H19.6001C19.6001 4.40039 19.7001 7.80039 19.6001 11.2004C19.6001 12.8004 18.5001 13.8004 17.0001 13.8004C12.2001 13.9004 7.9001 13.9004 3.0001 13.8004C1.4001 13.8004 0.400096 12.7004 0.400096 11.0004C0.300096 7.70038 0.400096 4.30039 0.400096 0.900391Z" fill="white"/>
    <path d="M70.2001 22.1003H73.3001V31.5003C73.3001 31.7003 73.5001 31.9003 73.7001 31.9003H87.7001V34.8004C87.7001 34.8004 73.9001 34.8004 73.8001 34.8004C71.0001 34.8004 70.1001 33.7003 70.1001 31.2003C70.2001 28.5003 70.2001 25.1003 70.2001 22.1003Z" fill="white"/>
    <path d="M110.5 22.2004C111.5 22.2004 112.3 22.2004 113.4 22.2004C113.4 26.4004 113.4 30.6004 113.4 34.9004C112.5 34.9004 111.6 34.9004 110.5 34.9004C110.5 30.6004 110.5 26.5004 110.5 22.2004Z" fill="white"/>
    <path d="M63.5001 7.10039C63.5001 7.10039 64.0001 6.30039 64.0001 5.90039C64.6001 3.50039 63.7001 1.00039 61.3001 0.900394C55.9001 0.700394 50.5001 0.800388 44.9001 0.800388C44.9001 5.10039 44.9001 9.3004 44.9001 13.7004C50.0001 13.7004 55.0001 13.7004 60.0001 13.7004C63.9001 13.7004 64.5001 10.8004 63.9001 8.10039C63.9001 7.80039 63.5001 7.10039 63.5001 7.10039ZM60.2001 10.8004L48.3001 10.9004V8.50038C48.3001 8.50038 58.0001 8.50038 60.2001 8.50038C60.4001 8.50038 60.6001 8.70039 60.6001 8.90039V10.4004C60.6001 10.6004 60.4001 10.8004 60.2001 10.8004ZM60.2001 6.10039L48.3001 6.2004V3.80039C48.3001 3.80039 58.0001 3.80039 60.2001 3.80039C60.4001 3.80039 60.6001 4.0004 60.6001 4.2004V5.7004C60.6001 5.9004 60.4001 6.10039 60.2001 6.10039Z" fill="white"/>
    <path d="M80.9001 3.30038C79.9001 1.30038 78.4001 0.900391 76.4001 0.900391C74.3001 0.900391 72.9001 1.30038 71.9001 3.30038C71.9001 3.30038 68.1001 10.1004 65.9001 13.8004H69.8001L75.2001 4.00038C75.3001 3.90038 75.4001 3.80038 75.6001 3.80038H77.4001C77.5001 3.80038 77.7001 3.90038 77.8001 4.00038L83.2001 13.8004C83.2001 13.8004 86.1001 13.8004 87.1001 13.8004C84.7001 10.1004 80.8001 3.30038 80.9001 3.30038Z" fill="white"/>
    <path d="M107.5 0.900787H104.2C104.2 4.10079 104.2 7.30079 104.2 10.9008C104.2 10.9008 103.7 11.0008 103 10.4008C101.3 8.80079 97.5002 4.20079 97.0002 3.70079C97.0002 3.70079 97.0002 3.60078 96.9002 3.60078C96.6002 3.20078 96.3002 2.90078 96.2002 2.80078C95.0002 1.60078 94.3002 1.00078 92.1002 0.800781H89.2002C89.2002 4.70078 89.2002 9.80079 89.2002 13.7008H92.5002C92.5002 10.5008 92.5002 7.30079 92.5002 3.70079C92.5002 3.70079 93.0002 3.60079 93.7002 4.20079C95.4002 5.80079 99.2002 10.4008 99.7002 10.9008C99.7002 10.9008 99.7002 11.0008 99.8002 11.0008C100.1 11.4008 100.4 11.7008 100.5 11.8008C101.7 13.0008 102.4 13.6008 104.6 13.8008H107.5C107.5 9.90078 107.5 4.80079 107.5 0.900787Z" fill="white"/>
    <path d="M19.5001 24.6004C19.5001 23.1004 18.4001 22.2004 16.7001 22.2004C14.9001 22.2004 13.0001 22.2004 11.2001 22.2004C7.50009 22.2004 3.8001 22.2004 0.100098 22.2004C0.100098 26.5004 0.100098 30.6004 0.100098 34.9004C3.7001 34.9004 7.10009 34.9004 10.5001 34.9004C12.6001 34.9004 14.7001 34.9004 16.7001 34.9004C18.3001 34.9004 19.4001 33.9004 19.5001 32.5004C19.5001 31.9004 19.5001 25.2004 19.5001 24.6004ZM16.4001 26.3004V30.8004V31.7004C16.4001 31.9004 16.2001 32.1004 16.0001 32.1004H3.6001C3.4001 32.1004 3.20009 31.9004 3.20009 31.7004V25.5004C3.20009 25.3004 3.4001 25.1004 3.6001 25.1004H16.2001C16.4001 25.1004 16.4001 25.3004 16.4001 25.5004V26.3004Z" fill="white"/>
    <path d="M134.4 22.1H131.1C131.1 25.3 131.1 28.5 131.1 32.1C131.1 32.1 130.6 32.2 129.9 31.6C128.2 30 124.4 25.4 123.9 24.9C123.9 24.9 123.9 24.9 123.8 24.8C123.5 24.4 123.2 24.1 123.1 24C121.9 22.8 121.2 22.2 119 22H116.1C116.1 25.9 116.1 31 116.1 34.9H119.4C119.4 31.7 119.4 28.5 119.4 24.9C119.4 24.9 119.9 24.8 120.6 25.4C122.3 27 126.1 31.6 126.6 32.1C126.6 32.1 126.6 32.1 126.7 32.2C127 32.6 127.3 32.9 127.4 33C128.6 34.2 129.3 34.8 131.5 35H134.4C134.4 31.1 134.4 26 134.4 22.1Z" fill="white"/>
    <path d="M44.0001 22.1003C43.5001 24.8003 42.7001 28.3003 42.1001 31.0003C42.0001 31.6003 41.8001 32.0003 41.3001 32.0003C40.7001 32.0003 40.7001 31.6003 40.4001 31.0003C40.4001 31.0003 38.4001 25.7003 37.4001 23.4003C37.0001 22.5003 36.4001 22.1003 35.5001 22.1003C35.1001 22.1003 34.7001 22.1003 34.4001 22.1003H34.3001H34.2001C33.9001 22.1003 33.5001 22.1003 33.1001 22.1003C32.2001 22.1003 31.6001 22.5003 31.2001 23.4003C30.2001 25.7003 28.2001 31.0003 28.2001 31.0003C28.0001 31.6003 27.9001 32.0003 27.3001 32.0003C26.8001 32.0003 26.6001 31.6003 26.5001 31.0003C25.9001 28.2003 25.2001 24.8003 24.6001 22.1003C23.4001 22.1003 22.4001 22.1003 21.2001 22.1003C22.0001 25.6003 22.8001 28.9003 23.5001 32.1003C23.8001 33.5003 24.2001 34.9004 26.0001 34.8004C26.8001 34.8004 27.9001 34.8004 28.7001 34.8004C29.7001 34.8004 30.2001 34.1003 30.7001 32.7003L33.6001 25.0003C33.9001 24.2003 34.0001 24.1003 34.2001 24.1003C34.4001 24.1003 34.6001 24.2003 34.8001 25.0003L37.7001 32.7003C38.2001 34.1003 38.7001 34.8004 39.7001 34.8004C40.5001 34.8004 41.5001 34.8004 42.4001 34.8004C44.2001 34.8004 44.6001 33.5003 44.9001 32.1003C45.6001 28.9003 46.4001 25.5003 47.2001 22.1003C46.2001 22.1003 45.2001 22.1003 44.0001 22.1003Z" fill="white"/>
    <path d="M66.3998 27.4008H52.0998C51.7998 27.4008 51.5998 27.2008 51.5998 27.0008V25.5008C51.5998 25.3008 51.7998 25.1008 52.0998 25.1008C54.4998 25.1008 63.7998 25.1008 66.3998 25.1008H67.0998C67.0998 24.1008 67.0998 23.2008 67.0998 22.2008C61.5998 22.2008 56.1998 22.1008 50.6998 22.3008C48.3998 22.4008 47.7998 24.5008 47.7998 27.1008C47.7998 27.5008 47.7998 29.2008 47.7998 29.6008C47.7998 32.3008 47.9998 35.1008 51.8998 35.1008C56.8998 35.1008 61.8998 35.1008 66.9998 35.1008C66.9998 34.1008 66.9998 33.1008 66.9998 32.2008H51.9998C51.6998 32.2008 51.4998 32.0008 51.4998 31.8008V30.1008C51.4998 29.9008 51.6998 29.7008 51.9998 29.7008C54.6998 29.7008 66.9998 29.7008 66.9998 29.7008C66.9998 28.9008 66.9998 28.1008 66.9998 27.4008H66.3998Z" fill="white"/>
    <path d="M90.0001 22.1003H93.1001V31.5003C93.1001 31.7003 93.3001 31.9003 93.5001 31.9003H107.5V34.8004C107.5 34.8004 93.7001 34.8004 93.6001 34.8004C90.8001 34.8004 89.9001 33.7003 89.9001 31.2003C90.0001 28.5003 90.0001 25.1003 90.0001 22.1003Z" fill="white"/>
    <path d="M36.6004 8.8H38.1004C40.8004 8.7 41.1004 7.30001 41.1004 4.90001C41.1004 2.70001 40.5004 1.1 38.0004 1H24.9004H21.9004V13.9H24.9004V8.90001H32.2004L37.6004 13.9H41.8004C41.8004 13.8 36.6004 8.8 36.6004 8.8ZM25.0004 6.10001V3.70001C25.8004 3.70001 34.9004 3.70001 37.0004 3.70001C37.2004 3.70001 37.4004 3.90001 37.4004 4.10001V5.60001C37.4004 5.80001 37.2004 6 37.0004 6L25.0004 6.10001Z" fill="white"/>
  </symbol>

  <symbol id="mir-card" viewBox="0 0 46 13" fill="none" xmlns="http://www.w3.org/2000/svg">
    <g clip-path="url(#clip0_481_377)">
    <path d="M16.4204 12.9839H12.3268V5.36281H12.0556C11.2944 7.90375 10.5335 10.4417 9.77137 12.9856H6.66659C5.90653 10.4481 5.14442 7.90417 4.38068 5.35518H4.11888C4.10459 5.98946 4.11439 6.62036 4.11235 7.25125C4.11072 7.8851 4.11235 8.51896 4.11235 9.15282C4.11235 9.78667 4.11235 10.4205 4.11235 11.0544C4.11235 11.6878 4.11235 12.3213 4.11235 12.9492C3.9596 13.0072 0.249543 13.0208 0 12.9661V0.0254462C0.0882181 0.0195143 0.173169 0.00934552 0.258119 0.00892182C1.52421 0.00807442 2.7903 0.00807442 4.05599 0.00807442C4.23242 0.00807442 4.40927 0.0025663 4.5853 0.00892182C5.3911 0.0385809 5.91755 0.488975 6.22836 1.22367C6.36967 1.55713 6.46361 1.91303 6.56203 2.26428C7.04723 3.99426 7.52631 5.72592 8.00824 7.45674C8.02662 7.52326 8.05153 7.58809 8.07563 7.66012H8.3656C8.38929 7.58427 8.41584 7.50674 8.43789 7.42793C8.98109 5.50306 9.52224 3.57733 10.0675 1.65331C10.1876 1.22918 10.3754 0.841918 10.6903 0.530498C11.0036 0.220772 11.3805 0.0563763 11.8069 0.0216329C12.0638 0.000447796 12.3228 0.00934552 12.5809 0.00892182C13.7788 0.00807442 14.9766 0.00849812 16.1745 0.00849812H16.4094C16.4572 0.1873 16.4653 12.7441 16.4204 12.9843V12.9839Z" fill="white"/>
    <path d="M31.1151 12.9845H26.9431V5.36126H26.6111C26.5817 5.42312 26.5466 5.49049 26.5163 5.5604C25.6497 7.55688 24.7814 9.55294 23.9176 11.5507C23.5888 12.3108 23.0411 12.7892 22.2541 12.9688C22.1753 12.9866 22.0928 12.9947 22.0119 12.9947C20.8006 12.9964 19.5892 12.9959 18.3778 12.9951C18.3117 12.9951 18.2455 12.9879 18.165 12.9828V0.0518634C18.3055 -0.00109927 21.9833 -0.0222843 22.3415 0.0306783C22.3472 0.119656 22.3587 0.214141 22.3587 0.30905C22.3595 2.66102 22.3595 5.01298 22.3595 7.36495V7.64671H22.6646C22.6964 7.5823 22.7356 7.50943 22.7691 7.43443C23.6476 5.45109 24.5282 3.46901 25.4014 1.48313C25.6525 0.911553 26.0091 0.453108 26.5699 0.184906C26.8137 0.067964 27.0649 0.00398515 27.3381 0.00567995C28.5155 0.0120355 29.6926 0.00822216 30.8701 0.00822216C30.9505 0.00822216 31.0306 0.00822216 31.1045 0.00822216C31.1551 0.188295 31.1633 12.7472 31.1155 12.9849L31.1151 12.9845Z" fill="white"/>
    <path d="M45.9072 5.36881C45.8222 5.37305 45.7487 5.37941 45.6752 5.37941C43.2055 5.37898 40.7354 5.38449 38.2657 5.37093C37.745 5.36797 37.2189 5.37898 36.7047 5.23916C35.9194 5.02604 35.2259 4.63581 34.6186 4.08542C33.7923 3.33717 33.1952 2.42579 32.853 1.34281C32.7219 0.927579 32.6296 0.503031 32.6055 0.0331462C32.6851 0.0297566 32.7623 0.0238248 32.8395 0.0238248C34.6765 0.0217063 36.5136 0.0204352 38.3507 0.0187404C39.3782 0.017893 40.4054 0.0187404 41.433 0.0166219C42.2294 0.0145034 42.9891 0.178052 43.6915 0.57167C44.9458 1.27417 45.6838 2.36732 45.9391 3.81383C46.024 4.29558 46.0244 4.7786 45.937 5.26077C45.9321 5.28789 45.9223 5.31416 45.9072 5.36839V5.36881Z" fill="#808080"/>
    <path d="M45.6293 6.20299C45.5129 6.56271 45.3443 6.87456 45.136 7.16225C44.4408 8.12109 43.5039 8.69351 42.3918 8.97993C41.9801 9.08585 41.5615 9.12187 41.138 9.12102C39.7771 9.11805 38.4163 9.12017 37.0554 9.12017C36.9754 9.12017 36.8949 9.12017 36.7936 9.12017V12.9483C36.6303 13.0068 33.0395 13.0191 32.7957 12.9665V6.22502C32.8034 6.21528 32.8075 6.20935 32.8124 6.20469C32.8173 6.20002 32.8226 6.19494 32.8287 6.19367C32.8553 6.18816 32.8818 6.17969 32.9084 6.17969C37.1204 6.17969 41.3324 6.17969 45.5444 6.18053C45.5636 6.18053 45.5828 6.19028 45.6302 6.20299H45.6293Z" fill="white"/>
    </g>
    <defs>
    <clipPath id="clip0_481_377">
    <rect width="46" height="13" fill="white"/>
    </clipPath>
    </defs>
  </symbol>

  <symbol id='visa-card' viewBox="0 0 45 14" fill="none" xmlns="http://www.w3.org/2000/svg">
    <g clip-path="url(#clip0_1037_367)">
    <path d="M44.9985 13.7257V13.807H41.6259C41.4793 13.1234 41.3357 12.4539 41.1914 11.7804H36.5073C36.2532 12.4547 35.9988 13.1302 35.7463 13.7997H31.9282C31.9482 13.7479 31.9628 13.7063 31.9806 13.6656C33.4046 10.3945 34.8286 7.12344 36.2532 3.8526C36.6255 2.99767 36.9973 2.14219 37.3741 1.28888C37.5224 0.953191 37.747 0.674891 38.0822 0.490531C38.4131 0.308607 38.7767 0.249319 39.1505 0.247154C40.0884 0.242281 41.0267 0.244717 41.9647 0.244988C41.9962 0.244988 42.0278 0.250944 42.0612 0.254192C42.3753 1.70119 42.6877 3.14223 43.0004 4.58327C43.3246 6.07737 43.6491 7.57148 43.973 9.06585C44.2682 10.4278 44.5626 11.7901 44.8589 13.1518C44.9008 13.344 44.9515 13.5343 44.9982 13.7255L44.9985 13.7257ZM37.5638 8.99898H40.5888C40.2263 7.30888 39.8661 5.62771 39.5006 3.92353C38.8519 5.62311 38.2116 7.30157 37.5638 8.99898Z" fill="white"/>
    <path d="M30.0298 0C30.1617 0.0170553 30.2932 0.03763 30.4257 0.0506246C31.1889 0.12426 31.9294 0.290753 32.6473 0.550644C32.6647 0.556871 32.6808 0.566346 32.7162 0.583401C32.5527 1.54933 32.3887 2.52094 32.2238 3.49607C31.9629 3.39374 31.7147 3.28897 31.4611 3.19855C30.5484 2.87288 29.6048 2.77704 28.6406 2.87477C28.232 2.91619 27.8417 3.02611 27.5068 3.27219C27.3115 3.41594 27.1688 3.59516 27.1046 3.82689C27.0233 4.12171 27.1162 4.37943 27.3303 4.58247C27.5189 4.76115 27.7266 4.93143 27.9537 5.06002C28.4169 5.32262 28.8956 5.56004 29.3732 5.798C30.0551 6.13776 30.6987 6.52705 31.2317 7.06741C31.7358 7.57853 32.0687 8.1752 32.1599 8.87825C32.2606 9.65522 32.139 10.4065 31.8056 11.1214C31.3544 12.0887 30.5906 12.7625 29.6231 13.2382C28.9375 13.5752 28.2084 13.7845 27.4482 13.8877C27.0638 13.9399 26.6752 13.9635 26.2885 14C26.0248 14 25.7611 14.0003 25.4974 14.0005C24.4454 13.9564 23.4095 13.8148 22.4026 13.5097C22.1943 13.4466 21.9908 13.3684 21.7809 13.2956C21.9528 12.2712 22.1217 11.2641 22.2922 10.2476C22.5371 10.3534 22.7662 10.4541 22.9966 10.5518C23.6332 10.8212 24.2881 11.0345 24.9821 11.1122C25.6443 11.1864 26.3079 11.2354 26.9693 11.1014C27.274 11.0397 27.5645 10.9401 27.8231 10.7703C28.1974 10.525 28.4132 10.1977 28.373 9.74483C28.3539 9.52988 28.2565 9.34876 28.1135 9.18742C27.9008 8.94729 27.6379 8.76455 27.3548 8.61349C26.913 8.37796 26.461 8.16031 26.0161 7.92992C25.3364 7.57772 24.6965 7.17326 24.1724 6.61774C23.4905 5.89492 23.208 5.0519 23.322 4.07948C23.4635 2.87315 24.0782 1.93862 25.0753 1.22338C25.8511 0.666783 26.7329 0.339483 27.6773 0.166493C28.026 0.102603 28.3817 0.0728236 28.7341 0.0262598C28.7541 0.0235526 28.7723 0.00947519 28.7915 0.000812159C29.2043 0.000812159 29.6169 0 30.0298 0Z" fill="white"/>
    <path d="M0 0.459904C0.0219512 0.392224 0.043621 0.324544 0.0697936 0.244141C0.115103 0.244141 0.166041 0.244141 0.216698 0.244141C2.08818 0.244141 3.95966 0.244141 5.83086 0.244141C6.10919 0.244141 6.38358 0.273649 6.64812 0.357572C7.16341 0.520816 7.45947 0.877895 7.56923 1.37683C7.70882 2.01086 7.83349 2.64786 7.96379 3.28378C8.14672 4.1758 8.32852 5.0681 8.51145 5.96012C8.60826 6.43252 8.70647 6.90493 8.803 7.37733C8.81116 7.41686 8.80976 7.45801 8.81285 7.49835C8.79456 7.46234 8.77345 7.42742 8.75826 7.39006C8.49006 6.73004 8.14925 6.10603 7.74287 5.51559C6.86989 4.247 5.75629 3.21177 4.44034 2.3747C4.24615 2.25126 4.04099 2.14378 3.8409 2.029C3.61829 1.90663 3.39991 1.77587 3.17223 1.66298C2.19962 1.18056 1.17861 0.820503 0.122702 0.550595C0.0835835 0.540579 0.0410882 0.544098 0 0.54112C0 0.514048 0 0.486976 0 0.459904Z" fill="#808080"/>
    <path d="M3.84086 2.02914C4.04095 2.14393 4.24611 2.2514 4.44029 2.37485C5.75652 3.21192 6.87013 4.24715 7.74283 5.51574C8.14921 6.10645 8.49001 6.73019 8.75821 7.39021C8.77341 7.42757 8.79452 7.46249 8.81281 7.49849C8.92425 8.01394 9.0357 8.52966 9.14714 9.04512C9.17669 9.18156 9.2054 9.31827 9.2417 9.4891C10.4378 6.39098 11.6226 3.32291 12.8088 0.250244H16.6612C16.5917 0.417007 16.525 0.579439 16.4566 0.741059C14.6386 5.03846 12.8209 9.33614 11.0017 13.6333C10.9221 13.8212 10.9691 13.7892 10.7642 13.7895C9.5918 13.7908 8.41909 13.79 7.24667 13.79H7.08204C7.01028 13.5339 6.93908 13.2832 6.86984 13.0323C5.93551 9.64314 5.00146 6.25427 4.06769 2.86513C3.99086 2.58656 3.91628 2.30771 3.84058 2.02887L3.84086 2.02914Z" fill="white"/>
    <path d="M19.5027 13.8004H15.8574C16.6173 9.28127 17.3757 4.76999 18.1353 0.251953H21.7806C21.0213 4.7681 20.2623 9.28208 19.5027 13.8004Z" fill="white"/>
    </g>
    <defs>
    <clipPath id="clip0_1037_367">
    <rect width="45" height="14" fill="white"/>
    </clipPath>
    </defs>
  </symbol>

  <symbol id='master-card' viewBox="0 0 49 29" fill="none" xmlns="http://www.w3.org/2000/svg">
    <path d="M48.762 14.5C48.762 22.4564 42.2927 29 34.262 29C26.3056 29 19.762 22.4564 19.762 14.5C19.762 6.54359 26.2312 0 34.1876 0C42.2927 0 48.762 6.54359 48.762 14.5Z" fill="#808080"/>
    <path d="M29.3542 14.5744C29.3542 13.5333 29.2055 12.4923 29.0568 11.5256H20.1337C20.2081 11.0051 20.3568 10.559 20.5055 9.9641H28.4619C28.3132 9.44359 28.0901 8.92308 27.8671 8.40256H21.1004C21.3235 7.88205 21.6209 7.4359 21.9183 6.84103H27.0491C26.7517 6.32051 26.3799 5.8 25.9337 5.27949H23.1081C23.5542 4.75897 24.0004 4.31282 24.5953 3.79231C22.0671 1.41282 18.6465 0 14.8542 0C6.97218 0.223077 0.428589 6.54359 0.428589 14.5C0.428589 22.4564 6.89782 29 14.9286 29C18.7209 29 22.0671 27.5128 24.6696 25.2077C25.1901 24.7615 25.6363 24.241 26.1568 23.6462H23.1824C22.8106 23.2 22.4388 22.6795 22.1414 22.159H27.1978C27.4953 21.7128 27.7927 21.1923 28.0158 20.5974H21.2491C21.026 20.1513 20.8029 19.6308 20.6542 19.0359H28.6106C29.0568 17.6974 29.3542 16.2103 29.3542 14.5744Z" fill="#686868"/>
    <path d="M20.0617 18.2178L20.2848 16.8794C20.2104 16.8794 20.0617 16.9537 19.913 16.9537C19.3925 16.9537 19.3181 16.6563 19.3925 16.5076L19.8386 13.8307H20.6566L20.8797 12.3435H20.1361L20.2848 11.4512H18.7232C18.7232 11.4512 17.8309 16.5076 17.8309 17.1025C17.8309 17.9948 18.3514 18.4409 19.095 18.4409C19.5412 18.4409 19.913 18.2922 20.0617 18.2178Z" fill="white"/>
    <path d="M20.5819 15.7642C20.5819 17.9206 22.0691 18.4411 23.2588 18.4411C24.3742 18.4411 24.8947 18.218 24.8947 18.218L25.1922 16.7309C25.1922 16.7309 24.3742 17.1027 23.5563 17.1027C21.846 17.1027 22.1434 15.8386 22.1434 15.8386H25.2665C25.2665 15.8386 25.4896 14.8719 25.4896 14.4257C25.4896 13.4591 24.9691 12.195 23.2588 12.195C21.7717 12.1206 20.5819 13.8309 20.5819 15.7642ZM23.2588 13.5334C24.0768 13.5334 23.9281 14.5001 23.9281 14.5745H22.2178C22.2922 14.5001 22.4409 13.5334 23.2588 13.5334Z" fill="white"/>
    <path d="M32.9981 18.218L33.2955 16.5078C33.2955 16.5078 32.552 16.8796 31.9571 16.8796C30.9161 16.8796 30.3955 16.0616 30.3955 15.0949C30.3955 13.236 31.2878 12.2693 32.4032 12.2693C33.1468 12.2693 33.8161 12.7155 33.8161 12.7155L34.0391 11.0796C34.0391 11.0796 33.1468 10.7078 32.2545 10.7078C30.4699 10.7078 28.7596 12.2693 28.7596 15.1693C28.7596 17.1026 29.652 18.3667 31.5109 18.3667C32.1802 18.4411 32.9981 18.218 32.9981 18.218Z" fill="white"/>
    <path d="M11.6577 12.1201C10.6167 12.1201 9.79872 12.4176 9.79872 12.4176L9.57564 13.756C9.57564 13.756 10.2449 13.4586 11.2859 13.4586C11.8064 13.4586 12.2526 13.5329 12.2526 13.9791C12.2526 14.2765 12.1782 14.3509 12.1782 14.3509H11.509C10.1705 14.3509 8.75769 14.8714 8.75769 16.656C8.75769 18.0688 9.65 18.3663 10.2449 18.3663C11.2859 18.3663 11.8064 17.697 11.8808 17.697L11.8064 18.2919H13.0705L13.6654 14.0535C13.6654 12.1945 12.1782 12.1201 11.6577 12.1201ZM11.9551 15.5406C11.9551 15.7637 11.8064 17.0278 10.9141 17.0278C10.4679 17.0278 10.3192 16.656 10.3192 16.4329C10.3192 16.0611 10.5423 15.5406 11.732 15.5406C11.8808 15.5406 11.9551 15.5406 11.9551 15.5406Z" fill="white"/>
    <path d="M15.1528 18.3664C15.5246 18.3664 17.4579 18.4408 17.4579 16.3587C17.4579 14.4254 15.599 14.7972 15.599 14.0536C15.599 13.6818 15.8964 13.5331 16.4169 13.5331C16.64 13.5331 17.4579 13.6074 17.4579 13.6074L17.681 12.1946C17.681 12.1946 17.1605 12.0459 16.1938 12.0459C15.0784 12.0459 13.8887 12.4921 13.8887 14.0536C13.8887 15.8382 15.822 15.6895 15.822 16.3587C15.822 16.8049 15.3015 16.8792 14.9297 16.8792C14.2605 16.8792 13.5169 16.6562 13.5169 16.6562L13.2938 18.069C13.4425 18.2177 13.8887 18.3664 15.1528 18.3664Z" fill="white"/>
    <path d="M45.7855 10.9307L45.4881 13.0127C45.4881 13.0127 44.8932 12.2691 44.0009 12.2691C42.5881 12.2691 41.3983 13.9794 41.3983 15.9871C41.3983 17.2512 41.9932 18.5153 43.3317 18.5153C44.224 18.5153 44.8188 17.9204 44.8188 17.9204L44.7445 18.4409H46.306L47.4214 11.0794L45.7855 10.9307ZM45.0419 14.946C45.0419 15.764 44.6701 16.8794 43.7778 16.8794C43.2573 16.8794 42.9599 16.4332 42.9599 15.6153C42.9599 14.3512 43.4804 13.6076 44.224 13.6076C44.7445 13.6819 45.0419 14.0537 45.0419 14.946Z" fill="white"/>
    <path d="M3.25366 18.2922L4.14597 12.7896L4.29468 18.2922H5.33571L7.3434 12.7896L6.52545 18.2922H8.16135L9.42545 10.9307H6.89725L5.33571 15.4666L5.26135 10.9307H3.03058L1.76648 18.2922H3.25366Z" fill="white"/>
    <path d="M27.05 18.2926C27.4961 15.7644 27.5705 13.6824 28.6859 14.0541C28.8346 13.0875 29.0577 12.6413 29.2064 12.2695H28.909C28.2397 12.2695 27.6448 13.1618 27.6448 13.1618L27.7936 12.3439H26.3064L25.3397 18.2926H27.05Z" fill="white"/>
    <path d="M36.5688 12.1201C35.5278 12.1201 34.7098 12.4176 34.7098 12.4176L34.4868 13.756C34.4868 13.756 35.156 13.4586 36.197 13.4586C36.7175 13.4586 37.1637 13.5329 37.1637 13.9791C37.1637 14.2765 37.0893 14.3509 37.0893 14.3509H36.4201C35.0816 14.3509 33.6688 14.8714 33.6688 16.656C33.6688 18.0688 34.5611 18.3663 35.156 18.3663C36.197 18.3663 36.7175 17.697 36.7919 17.697L36.7175 18.2919H38.1304L38.7252 14.0535C38.7252 12.1945 37.0893 12.1201 36.5688 12.1201ZM36.9406 15.5406C36.9406 15.7637 36.7919 17.0278 35.8996 17.0278C35.4534 17.0278 35.3047 16.656 35.3047 16.4329C35.3047 16.0611 35.5278 15.5406 36.7175 15.5406C36.8663 15.5406 36.8663 15.5406 36.9406 15.5406Z" fill="white"/>
    <path d="M39.9155 18.2926C40.3616 15.7644 40.436 13.6824 41.5514 14.0541C41.7001 13.0875 41.9231 12.6413 42.0719 12.2695H41.7744C41.1052 12.2695 40.5103 13.1618 40.5103 13.1618L40.659 12.3439H39.1719L38.2052 18.2926H39.9155Z" fill="white"/>
  </symbol>


</svg>